<svg xmlns="http://www.w3.org/2000/svg" viewBox="0 0 80 76">
    <path fill="#6DA5E5" d="M65.977 27.077C65.992 26.72 66 26.36 66 26 66 12.193 54.807 1 41 1S16 12.193 16 26c0 .362.008.722.023 1.08 8.385-3.663 17.93-2.364 24.98 2.916 7.05-5.278 16.59-6.578 24.974-2.92z"></path>
    <path fill="#294BA5" d="M31.022 48.93A24.95 24.95 0 0 0 41 51c3.55 0 6.927-.74 9.986-2.074a24.906 24.906 0 0 0-3.33-11.422 24.977 24.977 0 0 0-6.652-7.508 24.92 24.92 0 0 0-6.65 7.508 24.892 24.892 0 0 0-3.332 11.425z"></path>
    <path fill="#2B9BDA" d="M50.986 48.926c8.526-3.72 14.576-12.055 14.99-21.85-8.382-3.658-17.924-2.358-24.972 2.92a24.92 24.92 0 0 1 6.65 7.508 24.877 24.877 0 0 1 3.332 11.422z"></path>
    <path fill="#6750AE" d="M31.022 48.93c-8.53-3.717-14.582-12.054-15-21.85 8.386-3.663 17.932-2.364 24.982 2.916a24.92 24.92 0 0 0-6.65 7.508 24.892 24.892 0 0 0-3.332 11.425z"></path>
    <path fill="#6074B8" d="M50.986 48.926c.34 8.06-3.24 16.04-9.982 21.08-6.74-5.04-10.322-13.017-9.982-21.077A24.934 24.934 0 0 0 41 51c3.55 0 6.927-.74 9.986-2.074z"></path>
    <path fill="#66F1F3" d="M41.004 70.007c.79.59 1.624 1.142 2.5 1.648 11.957 6.903 27.247 2.806 34.15-9.15 6.904-11.958 2.807-27.248-9.15-34.15a24.74 24.74 0 0 0-2.527-1.278c-.415 9.794-6.465 18.13-14.99 21.85.34 8.06-3.242 16.04-9.983 21.08z"></path>
    <path fill="#F27CC2" d="M41.004 70.007c-.79.59-1.624 1.142-2.5 1.648-11.957 6.903-27.247 2.806-34.15-9.15-6.904-11.958-2.807-27.248 9.15-34.15a24.701 24.701 0 0 1 2.52-1.274c.416 9.796 6.47 18.133 14.998 21.85-.34 8.06 3.243 16.037 9.982 21.077z"></path>
</svg>