<?xml version="1.0" encoding="utf-8"?>
<svg version="1.1" id="Layer_1" xmlns="http://www.w3.org/2000/svg" xmlns:xlink="http://www.w3.org/1999/xlink" x="0px" y="0px"
	 viewBox="0 0 80 74" style="enable-background:new 0 0 80 74;" xml:space="preserve">
<style type="text/css">
	.st0{fill:#6DA5E5;}
	.st1{fill:#294BA5;}
	.st2{fill:#2B9BDA;}
	.st3{fill:#6750AE;}
	.st4{fill:#6074B8;}
	.st5{fill:#66F1F3;}
	.st6{fill:#F27CC2;}
</style>
<path class="st0" d="M65,26.1c0-0.4,0-0.7,0-1.1C65,11.2,53.8,0,40,0S15,11.2,15,25c0,0.4,0,0.7,0,1.1c8.4-3.7,17.9-2.4,25,2.9
	C47.1,23.7,56.6,22.4,65,26.1L65,26.1z"/>
<path class="st1" d="M30,47.9c3.1,1.4,6.5,2.1,10,2.1c3.5,0,6.9-0.7,10-2.1c-0.2-4-1.3-7.9-3.3-11.4C45,33.6,42.7,31,40,29
	c-2.7,2-5,4.6-6.7,7.5C31.3,40,30.2,43.9,30,47.9L30,47.9z"/>
<path class="st2" d="M50,47.9c8.5-3.7,14.6-12.1,15-21.9c-8.4-3.7-17.9-2.4-25,2.9c2.7,2,5,4.6,6.7,7.5C48.7,40,49.8,43.9,50,47.9z"
	/>
<path class="st3" d="M30,47.9c-8.5-3.7-14.6-12.1-15-21.9c8.4-3.7,17.9-2.4,25,2.9c-2.7,2-5,4.6-6.7,7.5C31.3,40,30.2,43.9,30,47.9
	L30,47.9z"/>
<path class="st4" d="M50,47.9C50.3,56,46.7,64,40,69c-6.7-5-10.3-13-10-21.1c3.1,1.4,6.5,2.1,10,2.1C43.5,50,46.9,49.3,50,47.9z"/>
<path class="st5" d="M40,69c0.8,0.6,1.6,1.1,2.5,1.6c12,6.9,27.2,2.8,34.2-9.2c6.9-12,2.8-27.2-9.2-34.2c-0.8-0.5-1.7-0.9-2.5-1.3
	c-0.4,9.8-6.5,18.1-15,21.8C50.3,56,46.7,64,40,69z"/>
<path class="st6" d="M40,69c-0.8,0.6-1.6,1.1-2.5,1.6c-12,6.9-27.2,2.8-34.2-9.2c-6.9-12-2.8-27.2,9.1-34.2c0.8-0.5,1.7-0.9,2.5-1.3
	c0.4,9.8,6.5,18.1,15,21.9C29.7,56,33.3,64,40,69L40,69z"/>
</svg>
